<svg xmlns="http://www.w3.org/2000/svg" version="1.1" xmlns:xlink="http://www.w3.org/1999/xlink" xmlns:svgjs="http://svgjs.dev/svgjs" width="560" height="560" preserveAspectRatio="none" viewBox="0 0 560 560"><g mask="url(&quot;#SvgjsMask1007&quot;)" fill="none"><path d="M -6.453540021950971,301 C 30.95,255.6 105.75,58 180.54645997804903,74 C 255.35,90 292.75,348 367.54645997804903,381 C 442.35,414 479.75,215.2 554.546459978049,239 C 629.35,262.8 740.46,494.8 741.546459978049,500 C 742.64,505.2 596.31,312 560,265" stroke="rgba(197, 199, 201, 0.58)" stroke-width="2"></path><path d="M -272.84210189679646,360 C -235.44,338.4 -160.64,243.2 -85.84210189679646,252 C -11.04,260.8 26.36,438.4 101.15789810320354,404 C 175.96,369.6 213.36,79.8 288.15789810320354,80 C 362.96,80.2 420.79,396.8 475.15789810320354,405 C 529.53,413.2 543.03,177.8 560,121" stroke="rgba(197, 199, 201, 0.58)" stroke-width="2"></path><path d="M -261.4382192197292,85 C -224.04,131.6 -149.24,286.4 -74.43821921972919,318 C 0.36,349.6 37.76,247.4 112.56178078027081,243 C 187.36,238.6 224.76,308.2 299.5617807802708,296 C 374.36,283.8 434.47,147.6 486.5617807802708,182 C 538.65,216.4 545.31,410.8 560,468" stroke="rgba(197, 199, 201, 0.58)" stroke-width="2"></path><path d="M -350.8141299330442,472 C -313.41,425.6 -238.61,267.8 -163.81412993304423,240 C -89.01,212.2 -51.61,344.8 23.185870066955772,333 C 97.99,321.2 135.39,176.2 210.18587006695577,181 C 284.99,185.8 327.22,355.6 397.1858700669558,357 C 467.15,358.4 527.44,221.8 560,188" stroke="rgba(197, 199, 201, 0.58)" stroke-width="2"></path><path d="M -194.32512472230016,245 C -156.93,261 -82.13,349 -7.325124722300167,325 C 67.47,301 104.87,113.2 179.67487527769984,125 C 254.47,136.8 291.87,387.4 366.6748752776998,384 C 441.47,380.6 515.01,90 553.6748752776998,108 C 592.34,126 558.73,400.8 560,474" stroke="rgba(197, 199, 201, 0.58)" stroke-width="2"></path><path d="M -310.9379825799257,305 C -273.54,259.6 -198.74,68.6 -123.9379825799257,78 C -49.14,87.4 -11.74,313.2 63.0620174200743,352 C 137.86,390.8 175.26,264.4 250.0620174200743,272 C 324.86,279.6 375.07,397 437.0620174200743,390 C 499.05,383 535.41,267.6 560,237" stroke="rgba(197, 199, 201, 0.58)" stroke-width="2"></path><path d="M -214.22390825543863,187 C -176.82,210.8 -102.02,319 -27.223908255438626,306 C 47.58,293 84.98,103.4 159.77609174456137,122 C 234.58,140.6 271.98,398 346.77609174456137,399 C 421.58,400 491.13,145.6 533.7760917445614,127 C 576.42,108.4 554.76,270.2 560,306" stroke="rgba(197, 199, 201, 0.58)" stroke-width="2"></path><path d="M -155.66644790821408,76 C -118.27,153 -43.47,428.6 31.333552091785933,461 C 106.13,493.4 143.53,236 218.33355209178592,238 C 293.13,240 330.53,471 405.3335520917859,471 C 480.13,471 561.4,254 592.3335520917859,238 C 623.27,222 566.47,360.4 560,391" stroke="rgba(197, 199, 201, 0.58)" stroke-width="2"></path></g><defs><mask id="SvgjsMask1007"><rect width="560" height="560" fill="#ffffff"></rect></mask></defs></svg>