<svg width="800" height="800" viewBox="0 0 32 32" fill="none" xmlns="http://www.w3.org/2000/svg"><path d="M27 2H5a3 3 0 0 0-3 3v14a3 3 0 0 0 3 3h22a3 3 0 0 0 3-3V5a3 3 0 0 0-3-3Z" fill="#1565C0"/><path d="M14.09 11.15a3 3 0 1 0-4.18 0C7.68 11.75 6 14.14 6 17a1 1 0 1 0 2 0c0-2.21 1.35-4 3-4h2c1.65 0 3 1.79 3 4a1 1 0 0 0 2 0c0-2.86-1.68-5.25-3.91-5.85ZM12 8a1 1 0 1 1 0 2 1 1 0 0 1 0-2Z" fill="#E64A19"/><path d="M25 8h-3a1 1 0 1 1 0-2h3a1 1 0 1 1 0 2ZM25 12h-6a1 1 0 0 1 0-2h6a1 1 0 0 1 0 2ZM25 16h-3a1 1 0 0 1 0-2h3a1 1 0 0 1 0 2Z" fill="#E0E0E0"/><path d="M27 24H5a3 3 0 0 0 0 6h22a3 3 0 0 0 0-6Z" fill="#37474F"/><path d="M5 2a3 3 0 0 0-3 3v14a3 3 0 0 0 3 3h11V2H5Z" fill="#1E88E5"/><path d="M14.09 11.15a3 3 0 1 0-4.18 0C7.68 11.75 6 14.14 6 17a1 1 0 1 0 2 0c0-2.21 1.35-4 3-4h2c1.65 0 3 1.79 3 4v-4.77a4.62 4.62 0 0 0-1.91-1.08ZM12 10a1 1 0 1 1 0-2 1 1 0 0 1 0 2Z" fill="#FF7043"/><path d="M5 24a3 3 0 0 0 0 6h11v-6H5Z" fill="#455A64"/><path d="M27 2H5a3 3 0 0 0-3 3v14a3 3 0 0 0 3 3h22a3 3 0 0 0 3-3V5a3 3 0 0 0-3-3Zm1 17a1 1 0 0 1-1 1H5a1 1 0 0 1-1-1V5a1 1 0 0 1 1-1h22a1 1 0 0 1 1 1v14ZM27 24H5a3 3 0 0 0 0 6h22a3 3 0 0 0 0-6Zm0 4H5a1 1 0 0 1 0-2h22a1 1 0 0 1 0 2Z" fill="#263238"/></svg>