<?xml version="1.0" standalone="no"?>
<!DOCTYPE svg PUBLIC "-//W3C//DTD SVG 20010904//EN"
 "http://www.w3.org/TR/2001/REC-SVG-20010904/DTD/svg10.dtd">
<svg version="1.0" xmlns="http://www.w3.org/2000/svg" width="733.000000pt" height="336.000000pt" viewBox="0 0 733.000000 336.000000" preserveAspectRatio="xMidYMid meet">
<metadata>
Created by potrace 1.16, written by Peter Selinger 2001-2019
</metadata>
<g transform="translate(0.000000,336.000000) scale(0.100000,-0.100000)" fill="#000000" stroke="none">
<path d="M4410 3050 c-13 -9 -13 -11 0 -20 8 -5 24 -10 35 -10 29 0 73 -32
101 -74 28 -41 52 -46 80 -15 23 26 110 69 141 69 22 0 40 17 29 27 -13 13
-100 2 -146 -18 l-49 -21 -31 22 c-29 21 -109 50 -134 50 -6 0 -18 -5 -26 -10z"></path>
<path d="M3605 2673 c-74 -95 -114 -137 -126 -136 -20 3 -34 -12 -188 -211
-63 -80 -118 -146 -122 -146 -4 0 -31 30 -60 68 -29 37 -84 106 -122 155 l-69
87 -57 -72 c-295 -374 -609 -777 -624 -800 -11 -15 -16 -28 -12 -28 4 0 63 38
132 85 69 47 128 84 130 81 3 -2 -1 -39 -8 -80 -6 -42 -9 -80 -5 -83 4 -4 82
17 174 47 145 48 173 60 212 96 l45 41 89 -9 c49 -5 91 -6 93 -4 3 3 -18 80
-45 173 -55 182 -113 413 -103 413 3 0 86 -113 185 -250 98 -138 182 -253 186
-255 5 -3 24 4 43 15 l34 20 166 -125 165 -126 224 55 c122 31 233 58 246 61
12 3 22 10 22 15 0 5 -42 38 -94 72 -52 34 -93 65 -90 70 3 4 27 8 55 8 29 0
49 5 49 11 0 6 -45 59 -100 117 -55 58 -100 110 -100 114 0 4 9 8 19 8 28 0
51 11 51 24 0 6 -47 49 -105 96 -58 46 -105 86 -105 89 0 3 12 18 28 34 l27
28 -58 112 c-42 81 -58 120 -55 142 3 28 11 20 121 -120 65 -82 241 -304 390
-493 168 -211 292 -377 324 -433 28 -51 56 -96 61 -101 7 -7 31 4 69 30 l59
40 80 -19 c83 -20 134 -24 134 -11 0 4 -43 41 -95 82 -52 41 -95 80 -95 87 0
6 14 16 30 22 17 5 30 14 30 18 -1 4 -35 44 -76 88 -69 73 -74 83 -70 114 3
19 -1 49 -10 69 -8 19 -13 37 -11 38 2 2 84 -99 183 -225 108 -139 192 -237
211 -247 33 -19 53 -14 36 8 -6 7 -113 144 -238 303 -125 160 -230 290 -234
289 -3 0 -49 -55 -101 -122 -136 -174 -118 -165 -177 -90 -27 35 -179 228
-337 431 -159 202 -292 367 -296 367 -4 0 -56 -62 -115 -137z"></path>
<path d="M1990 2080 c-22 -43 -37 -86 -34 -94 3 -8 -6 -35 -21 -59 -19 -33
-22 -46 -13 -50 10 -3 6 -18 -14 -56 -16 -28 -28 -53 -28 -56 0 -3 11 -3 25 1
30 7 31 -1 5 -44 -11 -18 -20 -37 -20 -42 0 -5 27 -15 60 -22 58 -12 59 -13
62 -47 2 -28 7 -36 23 -36 16 0 21 8 23 37 3 35 5 36 51 43 72 10 76 15 52 63
-26 52 -26 54 4 46 31 -8 31 -5 -2 57 -21 38 -25 53 -15 56 9 4 6 17 -13 49
-14 25 -24 52 -21 62 5 15 -68 172 -79 172 -3 0 -23 -36 -45 -80z"></path>
<path d="M5250 2080 c-22 -45 -38 -85 -34 -91 3 -5 -6 -32 -20 -58 -17 -34
-22 -51 -14 -59 8 -8 3 -24 -16 -56 -32 -55 -32 -60 -1 -52 30 8 31 1 4 -43
-11 -18 -18 -39 -15 -46 2 -7 29 -16 60 -19 55 -7 55 -7 58 -44 2 -30 8 -38
26 -40 20 -3 22 1 22 35 l0 39 60 12 c34 7 60 18 60 25 0 7 -9 26 -20 42 -26
40 -25 48 5 41 14 -4 25 -2 25 3 0 6 -11 27 -25 47 -26 39 -32 64 -14 64 5 0
-2 22 -16 49 -15 27 -24 54 -21 60 6 9 -68 171 -79 171 -3 0 -23 -36 -45 -80z"></path>
<path d="M1687 2063 c-38 -63 -67 -129 -63 -140 4 -8 -4 -33 -16 -56 -17 -30
-20 -41 -10 -45 9 -3 6 -15 -13 -47 -30 -52 -31 -59 -5 -52 25 6 25 -6 3 -44
-16 -26 -16 -31 -3 -39 8 -5 26 -10 40 -10 37 0 53 -14 54 -47 1 -21 6 -28 21
-28 15 0 21 8 23 32 3 30 7 32 48 39 54 8 59 15 39 53 -19 38 -19 41 5 41 25
0 25 3 -5 55 -19 32 -22 44 -13 48 10 3 7 15 -9 45 -13 22 -21 47 -18 54 5 11
-60 148 -70 148 -2 0 -6 -3 -8 -7z"></path>
<path d="M5596 1999 c-19 -39 -33 -76 -30 -83 3 -7 -5 -30 -17 -51 -17 -29
-19 -39 -9 -45 10 -6 7 -18 -14 -54 -26 -44 -26 -46 -6 -46 24 0 26 -17 4 -48
-18 -27 -11 -42 21 -42 49 0 75 -17 75 -50 0 -23 4 -30 20 -30 16 0 20 7 20
30 0 32 1 33 67 50 l43 11 -15 36 c-20 46 -19 52 5 46 26 -7 25 -1 -6 49 -19
30 -23 43 -14 48 9 6 5 19 -14 52 -14 25 -23 48 -19 52 8 7 -57 146 -69 146
-4 0 -23 -32 -42 -71z"></path>
<path d="M1121 1497 c-15 -15 -14 -60 1 -75 9 -9 590 -12 2554 -12 2309 0
2542 1 2548 16 10 26 7 61 -6 72 -19 14 -5082 14 -5097 -1z"></path>
<path d="M1185 320 l-70 -5 2 -29 c1 -16 5 -36 7 -43 5 -11 451 -13 2548 -11
l2542 3 9 34 c4 19 5 37 0 42 -10 10 -4914 18 -5038 9z"></path>
</g>
</svg>
