<svg width="800" height="800" viewBox="0 0 32 32" fill="none" xmlns="http://www.w3.org/2000/svg"><path d="M27 6.48H5a3 3 0 0 0-3 3v15a3 3 0 0 0 3 3h22a3 3 0 0 0 3-3v-15a3 3 0 0 0-3-3Z" fill="#9FA8DA"/><path d="M30 9.48v2H2v-2a3 3 0 0 1 3-3h22a3 3 0 0 1 3 3Z" fill="#1A237E"/><path d="M11 8.48a1 1 0 0 1-1-1v-2H8v2a1 1 0 0 1-2 0v-3a1 1 0 0 1 1-1h4a1 1 0 0 1 1 1v3a1 1 0 0 1-1 1Z" fill="#283593"/><path d="M25 8.48a1 1 0 0 1-1-1v-2h-2v2a1 1 0 0 1-2 0v-3a1 1 0 0 1 1-1h4a1 1 0 0 1 1 1v3a1 1 0 0 1-1 1Z" fill="#1A237E"/><path d="M9 20.48H8a1 1 0 0 0-1 1v1a1 1 0 0 0 1 1h1a1 1 0 0 0 1-1v-1a1 1 0 0 0-1-1ZM14 15.48h-1a1 1 0 0 0-1 1v1a1 1 0 0 0 1 1h1a1 1 0 0 0 1-1v-1a1 1 0 0 0-1-1ZM14 20.48h-1a1 1 0 0 0-1 1v1a1 1 0 0 0 1 1h1a1 1 0 0 0 1-1v-1a1 1 0 0 0-1-1ZM19 15.48h-1a1 1 0 0 0-1 1v1a1 1 0 0 0 1 1h1a1 1 0 0 0 1-1v-1a1 1 0 0 0-1-1ZM19 20.48h-1a1 1 0 0 0-1 1v1a1 1 0 0 0 1 1h1a1 1 0 0 0 1-1v-1a1 1 0 0 0-1-1Z" fill="#0D47A1"/><path d="M24 15.48h-1a1 1 0 0 0-1 1v1a1 1 0 0 0 1 1h1a1 1 0 0 0 1-1v-1a1 1 0 0 0-1-1Z" fill="#C2185B"/><path d="M24 20.48h-1a1 1 0 0 0-1 1v1a1 1 0 0 0 1 1h1a1 1 0 0 0 1-1v-1a1 1 0 0 0-1-1Z" fill="#0D47A1"/><path d="M5 6.48a3 3 0 0 0-3 3v15a3 3 0 0 0 3 3h11v-21H5Z" fill="#C5CAE9"/><path d="M5 6.48a3 3 0 0 0-3 3v2h14v-5H5Z" fill="#283593"/><path d="M11 8.48a1 1 0 0 1-1-1v-2H8v2a1 1 0 0 1-2 0v-3a1 1 0 0 1 1-1h4a1 1 0 0 1 1 1v3a1 1 0 0 1-1 1Z" fill="#283593"/><path d="M9 20.48H8a1 1 0 0 0-1 1v1a1 1 0 0 0 1 1h1a1 1 0 0 0 1-1v-1a1 1 0 0 0-1-1Z" fill="#EC407A"/><path d="M14 15.48h-1a1 1 0 0 0-1 1v1a1 1 0 0 0 1 1h1a1 1 0 0 0 1-1v-1a1 1 0 0 0-1-1ZM14 20.48h-1a1 1 0 0 0-1 1v1a1 1 0 0 0 1 1h1a1 1 0 0 0 1-1v-1a1 1 0 0 0-1-1Z" fill="#1565C0"/><path d="M27 6.48h-1v-2a1 1 0 0 0-1-1h-4a1 1 0 0 0-1 1v2h-8v-2a1 1 0 0 0-1-1H7a1 1 0 0 0-1 1v2H5a3 3 0 0 0-3 3v15a3 3 0 0 0 3 3h22a3 3 0 0 0 3-3v-15a3 3 0 0 0-3-3Zm-5-1h2v1h-2v-1Zm-14 0h2v1H8v-1Zm-3 3h22a1 1 0 0 1 1 1v2H4v-2a1 1 0 0 1 1-1Zm22 17H5a1 1 0 0 1-1-1v-11h24v11a1 1 0 0 1-1 1Z" fill="#263238"/></svg>